<?xml version="1.0" encoding="UTF-8"?>
<svg id="Layer_1" xmlns="http://www.w3.org/2000/svg" version="1.1" viewBox="0 0 1417.32 1417.32">
  <!-- Generator: Adobe Illustrator 29.6.1, SVG Export Plug-In . SVG Version: 2.1.1 Build 9)  -->
  <defs>
    <style>
      .st0 {
        fill: #fff;
      }

      .st1 {
        fill: #c41f43;
      }
    </style>
  </defs>
  <rect class="st1" x="237" y="497" width="352" height="258"/>
  <rect class="st1" x="759" y="701" width="352" height="258"/>
  <path class="st1" d="M865.25,550.84c126.66,0,223.68,22.59,291.09,67.78,67.39,45.19,101.09,115.42,101.09,210.68,0,59.44-13.61,107.69-40.8,144.73-27.21,37.06-66.38,66.16-117.53,87.32,17.05,21.18,34.9,45.4,53.59,72.67,18.67,27.29,37.15,55.78,55.41,85.49,18.27,29.73,35.93,60.67,52.98,92.82,17.05,32.18,32.88,63.72,47.5,94.65h-212.4c-15.49-27.67-31.19-55.76-47.08-84.27-15.89-28.49-32.18-56.18-48.89-83.05-16.71-26.87-33.23-52.31-49.52-76.33-16.31-24.01-32.62-45.8-48.91-65.34h-93.78v309h-190v-834.18c41.41-8.13,84.23-13.84,128.5-17.1,44.25-3.24,83.83-4.89,118.75-4.89ZM876.31,714.01c-13.83,0-26.22.42-37.2,1.22-10.98.82-21.35,1.64-31.11,2.44v229.33h53.67c71.55,0,122.78-8.94,153.7-26.84,30.9-17.88,46.36-48.37,46.36-91.49s-15.67-70.94-46.96-88.44c-31.32-17.48-77.46-26.23-138.45-26.23Z"/>
  <path class="st1" d="M388.78,876.41c-46.35,0-92.52-1.43-138.45-4.27-45.95-2.86-93.73-9.55-143.33-20.13V32.29c39.03-7.32,81.73-12.81,128.08-16.47,46.36-3.66,89.45-5.49,129.3-5.49,53.67,0,103.08,3.87,148.21,11.59,45.13,7.74,83.96,20.95,116.5,39.64,32.51,18.72,57.94,43.31,76.24,73.8,18.3,30.5,27.45,68.12,27.45,112.83,0,67.51-32.54,120.76-97.59,159.8,53.67,20.34,90.26,47.99,109.78,82.95,19.52,34.97,29.27,74.41,29.27,118.32,0,88.65-32.32,155.34-96.97,200.05-64.65,44.73-160.83,67.09-288.49,67.09ZM293,352h92.71c58.55,0,100.43-7.51,125.64-22.57,25.2-15.04,37.81-39.23,37.81-72.58s-13.02-58.13-39.03-71.97c-26.04-13.82-64.25-20.74-114.66-20.74-16.28,0-33.76.21-52.45.61-18.72.42-35.38,1.43-50.02,3.05v184.19ZM293,497v218.35c13.82,1.64,28.86,2.86,45.14,3.66,16.26.82,34.15,1.22,53.67,1.22,56.91,0,102.86-8.12,137.84-24.4,34.95-16.26,52.45-46.35,52.45-90.27,0-39.03-14.64-66.88-43.91-83.56-29.28-16.66-71.17-25-125.64-25h-119.54Z"/>
  <rect class="st1" x="230" y="132" width="352" height="258"/>
  <circle class="st0" cx="917.5" cy="830.5" r="127.5"/>
  <rect class="st0" x="177" y="118" width="363" height="32" rx="15.76" ry="15.76"/>
  <rect class="st0" x="182" y="252" width="454" height="17" rx="8.5" ry="8.5"/>
  <rect class="st0" x="182" y="300" width="393" height="10" rx="4.94" ry="4.94"/>
  <rect class="st0" x="182" y="342" width="296" height="10" rx="4.94" ry="4.94"/>
  <rect class="st0" x="182" y="204" width="296" height="10" rx="4.94" ry="4.94"/>
</svg>