
<?xml version="1.0" encoding="UTF-8"?>
<svg id="Layer_1" xmlns="http://www.w3.org/2000/svg" version="1.1" viewBox="150 220 300 200">
  <!-- Generator: Adobe Illustrator 29.6.1, SVG Export Plug-In . SVG Version: 2.1.1 Build 9)  -->
  <defs>
    <style>
      .st0 {
        fill-opacity: .5;
      }

      .st0, .st1, .st2 {
        fill: #fff;
      }

      .st3 {
        stroke-dasharray: 19.6 .98 19.6 19.6 0 19.6;
      }

      .st3, .st4, .st5, .st6 {
        stroke-miterlimit: 10;
      }

      .st3, .st4, .st6 {
        fill: none;
        stroke: #fff;
        stroke-linecap: round;
      }

      .st7 {
        opacity: .65;
      }

      .st1 {
        fill-opacity: .8;
        opacity: .9;
      }

      .st2 {
        fill-opacity: .55;
      }

      .st5 {
        fill: #c42142;
        stroke: #c42142;
      }

      .st6 {
        stroke-dasharray: 19.6 0 19.6 .98 19.6 19.6;
      }
    </style>
  </defs>
  <path class="st5" d="M428.53,422.93c-7.89-14.14-22.7-25.32-44.4-33.55,26.31-15.79,39.47-37.33,39.47-64.63,0-18.09-3.7-33.3-11.1-45.64-7.4-12.33-17.68-22.28-30.84-29.85-13.16-7.56-28.86-12.91-47.12-16.03-18.25-3.12-38.24-4.69-59.94-4.69-16.12,0-33.55.74-52.3,2.22-18.75,1.48-36.02,3.7-51.8,6.66v331.55c20.06,4.28,39.39,6.98,57.97,8.14,18.58,1.15,37.25,1.73,56,1.73,51.63,0,90.53-9.04,116.68-27.14,26.15-18.09,39.22-45.06,39.22-80.91,0-17.76-3.95-33.71-11.84-47.86Z"/>
  <g class="st7">
    <g>
      <path class="st4" d="M355.57,472.01c.32,3.37.38,6.71.2,9.99"/>
      <path class="st3" d="M355.77,482c-.07,1.23-.17,2.45-.31,3.67-.5,4.46-1.45,8.8-2.8,12.98-1.36,4.18-3.12,8.2-5.25,12.01-2.13,3.81-4.62,7.4-7.44,10.73-2.82,3.33-5.96,6.41-9.39,9.17-3.43,2.76-7.13,5.21-11.08,7.3-3.95,2.09-8.14,3.82-12.53,5.14-1.9.57-3.84,1.07-5.81,1.48"/>
      <path class="st6" d="M290.46,545.9c-3.79.21-7.53.12-11.19-.25-4.56-.47-9-1.37-13.27-2.68-4.27-1.31-8.38-3.01-12.27-5.07-3.89-2.06-7.56-4.48-10.95-7.22s-6.53-5.8-9.34-9.13-5.3-6.95-7.43-10.8c-2.12-3.85-3.88-7.93-5.21-12.22-1.33-4.28-2.25-8.76-2.69-13.39-.42-4.39-.37-8.72.1-12.95.47-4.22,1.37-8.34,2.66-12.31,1.29-3.96,2.96-7.77,4.98-11.38s4.38-7.02,7.06-10.18c2.67-3.16,5.65-6.07,8.9-8.69,3.25-2.62,6.76-4.94,10.51-6.92s7.72-3.62,11.88-4.88c4.16-1.25,8.51-2.12,13.01-2.55,4.5-.43,8.93-.4,13.25.04,4.32.44,8.53,1.3,12.58,2.54,4.05,1.24,7.94,2.85,11.63,4.81s7.16,4.25,10.38,6.85,6.19,5.5,8.86,8.66c2.67,3.16,5.03,6.59,7.04,10.23s3.67,7.52,4.94,11.58,2.13,8.3,2.55,12.7c.4,4.15.35,8.25-.09,12.24-.45,3.99-1.3,7.89-2.51,11.63s-2.79,7.35-4.7,10.76c-1.91,3.41-4.14,6.63-6.67,9.62-2.53,2.99-5.34,5.74-8.41,8.21-3.07,2.47-6.39,4.67-9.93,6.54-3.54,1.87-7.29,3.42-11.23,4.61-3.93,1.18-8.04,2-12.29,2.41-4.25.41-8.44.38-12.53-.04-4.09-.42-8.07-1.23-11.89-2.4-3.83-1.17-7.51-2.7-10.99-4.55-3.48-1.85-6.77-4.02-9.82-6.47-3.05-2.45-5.85-5.19-8.37-8.18-2.52-2.99-4.75-6.22-6.65-9.67-1.9-3.45-3.47-7.11-4.67-10.95-1.19-3.84-2.01-7.85-2.41-12-.37-3.91-.33-7.77.09-11.53.42-3.76,1.22-7.43,2.36-10.96s2.63-6.92,4.43-10.13c1.8-3.21,3.9-6.25,6.28-9.06s5.03-5.41,7.92-7.74,6.02-4.4,9.35-6.16,6.87-3.23,10.57-4.34c3.7-1.12,7.58-1.88,11.58-2.27,4-.38,7.95-.36,11.8.03,3.85.39,7.6,1.16,11.2,2.26,3.61,1.1,7.07,2.54,10.35,4.28,3.28,1.74,6.38,3.79,9.25,6.1,2.87,2.31,5.51,4.89,7.88,7.71,2.37,2.81,4.48,5.86,6.27,9.11,1.79,3.25,3.27,6.7,4.4,10.31,1.12,3.61,1.9,7.39,2.27,11.3.35,3.67.31,7.29-.08,10.82-.39,3.53-1.15,6.97-2.22,10.28s-2.47,6.49-4.16,9.51c-1.69,3.01-3.66,5.86-5.9,8.5-2.23,2.64-4.72,5.07-7.44,7.26-2.71,2.19-5.65,4.13-8.78,5.78-3.13,1.66-6.45,3.03-9.92,4.07s-7.11,1.77-10.87,2.13c-3.76.36-7.46.34-11.07-.03-3.61-.37-7.13-1.09-10.51-2.12-3.38-1.03-6.64-2.38-9.71-4.02-3.08-1.63-5.98-3.55-8.68-5.72-2.69-2.17-5.17-4.59-7.4-7.23-2.23-2.64-4.2-5.5-5.88-8.55-1.68-3.05-3.07-6.28-4.12-9.68s-1.78-6.94-2.13-10.61c-.33-3.43-.29-6.81.08-10.11.37-3.3,1.07-6.51,2.07-9.61,1-3.09,2.31-6.07,3.88-8.88s3.42-5.48,5.51-7.94c2.09-2.47,4.41-4.74,6.95-6.78,2.54-2.04,5.28-3.86,8.2-5.4s6.02-2.83,9.27-3.81c3.25-.98,6.64-1.65,10.15-1.99,3.51-.34,6.97-.32,10.35.03,3.37.35,6.66,1.02,9.82,1.98,3.16.97,6.2,2.23,9.08,3.75,2.88,1.53,5.59,3.32,8.11,5.35,2.52,2.03,4.83,4.29,6.91,6.76,2.08,2.47,3.92,5.14,5.5,7.99,1.57,2.85,2.87,5.87,3.85,9.04.99,3.17,1.66,6.48,1.99,9.91.3,3.19.27,6.33-.07,9.4s-.99,6.05-1.93,8.93c-.93,2.88-2.15,5.64-3.61,8.26-1.47,2.62-3.18,5.09-5.12,7.39-1.94,2.29-4.1,4.41-6.46,6.31-2.36,1.9-4.91,3.59-7.63,5.02-2.72,1.44-5.6,2.63-8.62,3.54s-6.18,1.54-9.44,1.85c-3.26.31-6.48.29-9.62-.03-3.14-.32-6.19-.94-9.13-1.84-2.94-.9-5.76-2.07-8.44-3.49-2.67-1.42-5.2-3.09-7.54-4.97-2.34-1.88-4.49-3.99-6.43-6.28s-3.65-4.78-5.11-7.43-2.67-5.46-3.58-8.41-1.55-6.03-1.85-9.22c-.28-2.95-.25-5.85.07-8.69.32-2.83.92-5.6,1.78-8.26.86-2.66,1.98-5.22,3.34-7.64,1.35-2.42,2.94-4.71,4.73-6.83,1.79-2.12,3.79-4.07,5.97-5.83,2.18-1.76,4.54-3.32,7.05-4.65,2.51-1.33,5.18-2.43,7.97-3.27,2.79-.84,5.71-1.42,8.73-1.71,3.02-.29,5.99-.27,8.89.03s5.73.87,8.44,1.7c2.72.83,5.33,1.91,7.8,3.23,2.47,1.31,4.81,2.85,6.97,4.6s4.15,3.69,5.94,5.81,3.37,4.42,4.72,6.87c1.35,2.45,2.46,5.05,3.31,7.77.85,2.72,1.43,5.57,1.71,8.52.26,2.71.23,5.38-.06,7.98-.29,2.6-.84,5.14-1.64,7.58-.79,2.44-1.82,4.79-3.07,7.01s-2.7,4.32-4.35,6.27c-1.65,1.95-3.48,3.74-5.48,5.35s-4.17,3.04-6.47,4.27c-2.31,1.22-4.75,2.23-7.32,3s-5.24,1.3-8.01,1.57c-2.77.26-5.5.25-8.17-.02s-5.26-.8-7.75-1.56c-2.5-.76-4.89-1.76-7.16-2.96-2.27-1.2-4.41-2.62-6.4-4.22s-3.81-3.39-5.46-5.33c-1.64-1.95-3.1-4.06-4.34-6.31-1.24-2.25-2.26-4.63-3.04-7.14s-1.31-5.12-1.57-7.82c-.24-2.47-.21-4.9.06-7.27s.77-4.68,1.49-6.91c.72-2.22,1.66-4.36,2.79-6.39,1.13-2.03,2.46-3.94,3.96-5.71,1.5-1.77,3.17-3.41,5-4.88s3.8-2.77,5.9-3.89,4.33-2.03,6.67-2.74c2.34-.7,4.78-1.19,7.3-1.43s5.01-.23,7.44.02c2.43.25,4.79.73,7.06,1.43,2.27.69,4.46,1.6,6.53,2.7,2.07,1.1,4.02,2.39,5.83,3.84s3.47,3.08,4.97,4.86c1.5,1.77,2.82,3.7,3.95,5.74,1.13,2.05,2.06,4.22,2.77,6.5.71,2.28,1.19,4.66,1.43,7.13.21,2.22.19,4.42-.05,6.56s-.69,4.22-1.35,6.23c-.65,2.01-1.5,3.94-2.52,5.76-1.02,1.83-2.22,3.55-3.57,5.15-1.35,1.6-2.86,3.08-4.51,4.4-1.64,1.33-3.43,2.5-5.32,3.51s-3.91,1.83-6.01,2.47c-2.11.63-4.31,1.07-6.59,1.29-2.28.22-4.52.2-6.71-.02-2.19-.22-4.32-.66-6.37-1.29s-4.02-1.45-5.89-2.44c-1.87-.99-3.63-2.15-5.26-3.47-1.63-1.32-3.13-2.78-4.48-4.38s-2.55-3.34-3.56-5.18c-1.02-1.85-1.86-3.81-2.5-5.86-.64-2.06-1.08-4.21-1.29-6.43-.19-1.98-.17-3.94.04-5.85.21-1.91.62-3.77,1.2-5.56s1.34-3.51,2.25-5.14c.91-1.63,1.98-3.17,3.19-4.6,1.21-1.43,2.55-2.74,4.02-3.92s3.05-2.23,4.74-3.13,3.48-1.64,5.36-2.2c1.88-.57,3.84-.96,5.87-1.15,2.03-.19,4.03-.18,5.99.02s3.85.59,5.68,1.15,3.59,1.29,5.25,2.17c1.66.88,3.23,1.92,4.69,3.09,1.46,1.17,2.8,2.48,4,3.91s2.27,2.97,3.18,4.62c.91,1.65,1.66,3.4,2.23,5.23.57,1.83.96,3.75,1.15,5.73.17,1.74.15,3.46-.04,5.14s-.54,3.31-1.05,4.88c-.51,1.57-1.17,3.08-1.97,4.52-.8,1.43-1.74,2.78-2.8,4.04s-2.24,2.41-3.53,3.45c-1.29,1.04-2.68,1.96-4.17,2.75-1.49.79-3.06,1.44-4.71,1.93-1.65.5-3.38.84-5.16,1.01-1.78.17-3.54.16-5.26-.02-1.71-.18-3.39-.52-4.99-1.01-1.61-.49-3.15-1.13-4.61-1.91-1.46-.78-2.84-1.69-4.12-2.72-1.28-1.03-2.46-2.18-3.51-3.43-1.06-1.25-1.99-2.61-2.79-4.06-.8-1.45-1.46-2.98-1.96-4.59-.5-1.61-.84-3.29-1.01-5.04-.14-1.5-.13-2.98.03-4.43s.47-2.85.91-4.21,1.01-2.66,1.7-3.89c.69-1.23,1.5-2.4,2.41-3.48.91-1.08,1.93-2.08,3.04-2.97,1.11-.9,2.31-1.69,3.59-2.37,1.28-.68,2.64-1.24,4.06-1.67,1.42-.43,2.91-.72,4.45-.87s3.05-.14,4.53.01c1.48.15,2.92.45,4.3.87,1.39.42,2.72.98,3.98,1.64,1.26.67,2.45,1.45,3.55,2.34s2.12,1.88,3.03,2.96,1.72,2.25,2.41,3.5c.69,1.25,1.26,2.57,1.69,3.96s.73,2.84.87,4.34c.12,1.26.11,2.5-.03,3.72-.14,1.21-.39,2.39-.76,3.53-.37,1.14-.85,2.23-1.43,3.27-.58,1.04-1.26,2.01-2.03,2.92s-1.62,1.74-2.55,2.49-1.94,1.42-3.02,1.99c-1.07.57-2.21,1.04-3.41,1.4-1.19.36-2.44.61-3.73.73s-2.56.12-3.8-.01c-1.24-.13-2.45-.37-3.61-.73-1.16-.36-2.28-.82-3.34-1.38-1.06-.56-2.06-1.22-2.98-1.97-.92-.75-1.78-1.58-2.54-2.48s-1.44-1.89-2.02-2.94c-.58-1.05-1.05-2.16-1.42-3.32s-.61-2.38-.73-3.64c-.1-1.02-.09-2.03.02-3.01s.32-1.94.62-2.86c.3-.92.69-1.8,1.16-2.64s1.02-1.63,1.64-2.36c.62-.73,1.31-1.41,2.07-2.02.75-.61,1.57-1.15,2.44-1.61s1.79-.84,2.76-1.13c.97-.29,1.98-.49,3.02-.59,1.04-.1,2.07-.09,3.08,0,1,.1,1.98.3,2.92.59.94.29,1.84.66,2.7,1.12.86.45,1.66.99,2.41,1.59.75.6,1.44,1.28,2.06,2.01.62.73,1.17,1.53,1.63,2.38.47.85.85,1.75,1.15,2.69.29.94.49,1.93.59,2.95.07.78.07,1.55-.02,2.3s-.24,1.48-.47,2.18c-.23.7-.52,1.38-.88,2.02-.36.64-.78,1.24-1.25,1.8-.47.56-1,1.08-1.58,1.54-.58.46-1.2.88-1.86,1.23s-1.37.64-2.11.86c-.74.22-1.51.38-2.31.45-.8.08-1.58.07-2.35,0s-1.51-.23-2.23-.45-1.41-.51-2.06-.85c-.65-.35-1.27-.75-1.84-1.21s-1.1-.97-1.57-1.54c-.47-.56-.89-1.17-1.25-1.82-.36-.65-.65-1.33-.88-2.05s-.38-1.47-.45-2.25c-.05-.54-.05-1.07.01-1.59.06-.52.17-1.02.33-1.51.16-.49.36-.95.61-1.39.07-.12.14-.24.22-.36"/>
      <path class="st4" d="M284.95,471.25c.25.05.49.11.74.19.5.15.97.35,1.42.59.45.24.88.52,1.27.84.39.32.76.67,1.08,1.06s.62.81.86,1.25c.25.45.45.92.6,1.42.15.5.26,1.02.31,1.56"/>
    </g>
  </g>
  <rect class="st2" x="192" y="337" width="164" height="4" rx="2" ry="2"/>
  <rect class="st2" x="192" y="318" width="164" height="7" rx="3.5" ry="3.5"/>
  <rect class="st0" x="192" y="300" width="118" height="4" rx="2" ry="2"/>
  <rect class="st1" x="192" y="265" width="147" height="13" rx="6.36" ry="6.36"/>
  <rect class="st0" x="192" y="356" width="118" height="4" rx="2" ry="2"/>
</svg>
