<?xml version="1.0" encoding="UTF-8"?>
<svg id="Layer_1" xmlns="http://www.w3.org/2000/svg" version="1.1" viewBox="0 0 595.28 841.89">
  <!-- Generator: Adobe Illustrator 29.6.1, SVG Export Plug-In . SVG Version: 2.1.1 Build 9)  -->
  <defs>
    <style>
      .st0 {
        fill-opacity: .5;
      }

      .st0, .st1, .st2 {
        fill: #fff;
      }

      .st3 {
        opacity: .65;
      }

      .st4 {
        stroke-dasharray: 19.6 .98 19.6 19.6 0 19.6;
      }

      .st4, .st5, .st6 {
        fill: none;
        stroke: #fff;
        stroke-linecap: round;
        stroke-width: 6px;
      }

      .st4, .st5, .st6, .st7 {
        stroke-miterlimit: 10;
      }

      .st6 {
        stroke-dasharray: 19.6 0 19.6 .98 19.6 19.6;
      }

      .st1 {
        fill-opacity: .8;
        isolation: isolate;
        opacity: .9;
      }

      .st7 {
        fill: #c42142;
        stroke: #c42142;
      }

      .st2 {
        fill-opacity: .55;
      }
    </style>
  </defs>
  <path class="st7" d="M560.83,440.31c-16.58-29.71-47.69-53.2-93.29-70.49,55.28-33.18,82.93-78.43,82.93-135.79,0-38.01-7.77-69.97-23.32-95.89-15.55-25.91-37.15-46.81-64.8-62.72-27.65-15.88-60.64-27.12-99-33.68-38.34-6.56-80.34-9.85-125.94-9.85-33.87,0-70.49,1.55-109.89,4.66-39.39,3.11-75.68,7.77-108.83,13.99v696.61c42.15,8.99,82.76,14.67,121.8,17.1,39.04,2.42,78.26,3.63,117.66,3.63,108.48,0,190.21-18.99,245.15-57.02,54.94-38.01,82.4-94.67,82.4-170,0-37.31-8.3-70.83-24.88-100.56h0Z"/>
  <g class="st3">
    <g>
      <path class="st5" d="M407.54,543.43c.67,7.08.8,14.1.42,20.99"/>
      <path class="st4" d="M407.96,564.42c-.15,2.58-.36,5.15-.65,7.71-1.05,9.37-3.05,18.49-5.88,27.27-2.86,8.78-6.56,17.23-11.03,25.23s-9.71,15.55-15.63,22.54c-5.92,7-12.52,13.47-19.73,19.27-7.21,5.8-14.98,10.95-23.28,15.34-8.3,4.39-17.1,8.03-26.33,10.8-3.99,1.2-8.07,2.25-12.21,3.11"/>
      <path class="st6" d="M270.74,698.68c-7.96.44-15.82.25-23.51-.53-9.58-.99-18.91-2.88-27.88-5.63-8.97-2.75-17.61-6.32-25.78-10.65-8.17-4.33-15.88-9.41-23.01-15.17s-13.72-12.19-19.62-19.18c-5.9-7-11.14-14.6-15.61-22.69-4.45-8.09-8.15-16.66-10.95-25.67-2.79-8.99-4.73-18.41-5.65-28.13-.88-9.22-.78-18.32.21-27.21.99-8.87,2.88-17.52,5.59-25.86,2.71-8.32,6.22-16.33,10.46-23.91s9.2-14.75,14.83-21.39c5.61-6.64,11.87-12.75,18.7-18.26,6.83-5.5,14.2-10.38,22.08-14.54,7.88-4.16,16.22-7.61,24.96-10.25,8.74-2.63,17.88-4.45,27.33-5.36,9.45-.9,18.76-.84,27.84.08,9.08.92,17.92,2.73,26.43,5.34,8.51,2.61,16.68,5.99,24.44,10.11,7.75,4.12,15.04,8.93,21.81,14.39,6.77,5.46,13.01,11.56,18.62,18.2,5.61,6.64,10.57,13.85,14.79,21.49,4.22,7.65,7.71,15.8,10.38,24.33s4.48,17.44,5.36,26.68c.84,8.72.74,17.33-.19,25.72-.95,8.38-2.73,16.58-5.27,24.44s-5.86,15.44-9.87,22.61-8.7,13.93-14.01,20.21-11.22,12.06-17.67,17.25c-6.45,5.19-13.43,9.81-20.86,13.74-7.44,3.93-15.32,7.19-23.59,9.69-8.26,2.48-16.89,4.2-25.82,5.06-8.93.86-17.73.8-26.33-.08s-16.96-2.58-24.98-5.04c-8.05-2.46-15.78-5.67-23.09-9.56-7.31-3.89-14.22-8.45-20.63-13.59-6.41-5.15-12.29-10.9-17.59-17.19-5.29-6.28-9.98-13.07-13.97-20.32-3.99-7.25-7.29-14.94-9.81-23.01-2.5-8.07-4.22-16.49-5.06-25.21-.78-8.22-.69-16.33.19-24.23s2.56-15.61,4.96-23.03c2.4-7.42,5.53-14.54,9.31-21.28,3.78-6.74,8.19-13.13,13.19-19.04,5-5.9,10.57-11.37,16.64-16.26s12.65-9.24,19.64-12.94,14.43-6.79,22.21-9.12c7.77-2.35,15.93-3.95,24.33-4.77,8.4-.8,16.7-.76,24.79.06,8.09.82,15.97,2.44,23.53,4.75,7.58,2.31,14.85,5.34,21.75,8.99,6.89,3.66,13.4,7.96,19.43,12.82,6.03,4.85,11.58,10.27,16.56,16.2,4.98,5.9,9.41,12.31,13.17,19.14,3.76,6.83,6.87,14.08,9.24,21.66,2.35,7.58,3.99,15.53,4.77,23.74.74,7.71.65,15.32-.17,22.73-.82,7.42-2.42,14.64-4.66,21.6-2.25,6.95-5.19,13.64-8.74,19.98-3.55,6.32-7.69,12.31-12.4,17.86-4.69,5.55-9.92,10.65-15.63,15.25-5.69,4.6-11.87,8.68-18.45,12.14-6.58,3.49-13.55,6.37-20.84,8.55-7.29,2.19-14.94,3.72-22.84,4.48-7.9.76-15.67.71-23.26-.06-7.58-.78-14.98-2.29-22.08-4.45-7.1-2.16-13.95-5-20.4-8.45-6.47-3.42-12.56-7.46-18.24-12.02-5.65-4.56-10.86-9.64-15.55-15.19-4.69-5.55-8.82-11.56-12.35-17.96-3.53-6.41-6.45-13.19-8.66-20.34s-3.74-14.58-4.48-22.29c-.69-7.21-.61-14.31.17-21.24.78-6.93,2.25-13.68,4.35-20.19,2.1-6.49,4.85-12.75,8.15-18.66s7.19-11.51,11.58-16.68c4.39-5.19,9.27-9.96,14.6-14.25s11.09-8.11,17.23-11.35,12.65-5.95,19.48-8.01c6.83-2.06,13.95-3.47,21.33-4.18,7.37-.71,14.64-.67,21.75.06,7.08.74,13.99,2.14,20.63,4.16,6.64,2.04,13.03,4.69,19.08,7.88,6.05,3.21,11.74,6.98,17.04,11.24s10.15,9.01,14.52,14.2c4.37,5.19,8.24,10.8,11.56,16.79,3.3,5.99,6.03,12.33,8.09,18.99,2.08,6.66,3.49,13.61,4.18,20.82.63,6.7.57,13.3-.15,19.75-.71,6.45-2.08,12.71-4.06,18.76-1.95,6.05-4.52,11.85-7.58,17.35-3.09,5.5-6.68,10.69-10.76,15.53-4.08,4.81-8.61,9.27-13.57,13.26s-10.32,7.54-16.03,10.55c-5.71,3.03-11.77,5.53-18.11,7.44-6.35,1.91-12.98,3.24-19.83,3.89-6.85.65-13.61.61-20.21-.06-6.6-.67-13.01-1.97-19.18-3.87-6.18-1.89-12.1-4.35-17.73-7.33-5.61-2.98-10.93-6.49-15.84-10.44-4.92-3.95-9.43-8.38-13.51-13.19-4.08-4.81-7.67-10.04-10.74-15.61-3.07-5.57-5.61-11.47-7.52-17.67s-3.26-12.67-3.89-19.37c-.59-6.2-.53-12.29.15-18.26.67-5.95,1.93-11.77,3.74-17.35s4.16-10.97,7.02-16.05c2.84-5.08,6.18-9.9,9.94-14.35,3.76-4.45,7.96-8.55,12.54-12.25,4.58-3.7,9.54-6.98,14.81-9.77,5.27-2.79,10.88-5.11,16.75-6.87s12-2.98,18.34-3.59c6.35-.61,12.59-.57,18.68.06s12.04,1.83,17.73,3.57c5.71,1.74,11.2,4.01,16.39,6.79,5.19,2.75,10.11,5.99,14.64,9.66,4.54,3.68,8.72,7.75,12.48,12.21,3.76,4.45,7.08,9.29,9.92,14.43,2.84,5.15,5.17,10.61,6.95,16.33,1.79,5.71,3,11.7,3.59,17.9.55,5.69.48,11.3-.13,16.77s-1.76,10.8-3.45,15.93c-1.66,5.13-3.82,10.06-6.45,14.73s-5.67,9.08-9.14,13.17c-3.47,4.1-7.31,7.86-11.51,11.24-4.2,3.38-8.76,6.39-13.59,8.97-4.85,2.56-9.98,4.69-15.38,6.3-5.4,1.62-11.01,2.73-16.83,3.3-5.82.55-11.56.53-17.17-.04s-11.05-1.68-16.28-3.28c-5.25-1.6-10.27-3.7-15.04-6.22-4.77-2.52-9.27-5.5-13.45-8.87s-8.01-7.12-11.47-11.2c-3.45-4.1-6.51-8.53-9.12-13.26-2.61-4.73-4.75-9.73-6.39-15-1.64-5.27-2.75-10.76-3.3-16.43-.5-5.19-.44-10.3.13-15.27s1.62-9.83,3.13-14.52c1.51-4.66,3.49-9.16,5.86-13.43,2.37-4.27,5.17-8.28,8.32-12,3.15-3.72,6.66-7.16,10.51-10.25,3.84-3.09,7.98-5.82,12.4-8.17s9.1-4.27,14.01-5.76c4.92-1.47,10.04-2.5,15.34-3,5.29-.5,10.53-.48,15.63.04s10.06,1.53,14.83,3c4.77,1.45,9.37,3.36,13.72,5.67s8.45,5.02,12.25,8.07c3.8,3.05,7.29,6.47,10.44,10.21,3.15,3.72,5.92,7.77,8.3,12.06,2.37,4.31,4.33,8.87,5.82,13.66,1.49,4.79,2.5,9.79,3,14.98.44,4.66.4,9.29-.11,13.78-.5,4.5-1.45,8.87-2.84,13.09-1.37,4.22-3.15,8.28-5.29,12.1-2.14,3.84-4.66,7.46-7.5,10.82-2.84,3.36-6.01,6.47-9.48,9.24-3.45,2.79-7.21,5.25-11.18,7.37-3.97,2.12-8.22,3.84-12.63,5.19-4.43,1.32-9.06,2.25-13.85,2.71-4.79.46-9.5.42-14.1-.04s-9.08-1.39-13.38-2.71-8.45-3.05-12.38-5.13c-3.93-2.08-7.63-4.52-11.05-7.29s-6.58-5.84-9.41-9.2-5.36-7.02-7.48-10.88c-2.14-3.89-3.91-8.01-5.25-12.31-1.34-4.33-2.27-8.85-2.71-13.51-.4-4.16-.36-8.28.08-12.29.44-4.01,1.3-7.92,2.52-11.68,1.22-3.76,2.82-7.37,4.73-10.8,1.91-3.42,4.16-6.66,6.7-9.66s5.36-5.76,8.45-8.24,6.41-4.69,9.96-6.58,7.31-3.45,11.26-4.62c3.95-1.2,8.07-2.02,12.33-2.42,4.27-.4,8.47-.38,12.59.04s8.09,1.24,11.93,2.42,7.54,2.71,11.03,4.56c3.49,1.85,6.79,4.03,9.85,6.49,3.07,2.46,5.88,5.21,8.4,8.22s4.77,6.24,6.68,9.71,3.49,7.14,4.69,10.99c1.2,3.84,2.02,7.88,2.42,12.04.36,3.66.32,7.27-.08,10.8s-1.13,6.95-2.21,10.25c-1.07,3.3-2.46,6.47-4.14,9.5-1.68,3-3.66,5.84-5.88,8.49s-4.71,5.06-7.42,7.25-5.63,4.12-8.76,5.78c-3.13,1.66-6.43,3.03-9.9,4.06-3.47,1.05-7.1,1.76-10.84,2.12s-7.44.34-11.05-.04c-3.59-.38-7.12-1.09-10.48-2.12-3.38-1.03-6.62-2.37-9.69-4.01s-5.97-3.55-8.66-5.71c-2.69-2.16-5.17-4.58-7.37-7.21-2.23-2.63-4.18-5.48-5.86-8.53-1.68-3.05-3.07-6.26-4.12-9.64s-1.76-6.91-2.12-10.59c-.29-3.15-.27-6.26.06-9.31.34-3.05.99-5.99,1.91-8.85s2.12-5.59,3.57-8.17,3.15-5.04,5.06-7.31c1.91-2.27,4.06-4.37,6.39-6.24,2.33-1.89,4.85-3.55,7.54-4.98s5.55-2.61,8.53-3.51c2.98-.9,6.11-1.51,9.35-1.83s6.41-.29,9.52.02c3.11.32,6.14.95,9.03,1.83,2.92.88,5.71,2.06,8.36,3.45,2.65,1.41,5.15,3.05,7.46,4.92s4.45,3.95,6.37,6.22,3.61,4.73,5.06,7.35,2.65,5.4,3.55,8.32,1.53,5.97,1.83,9.12c.25,2.65.23,5.25-.06,7.82-.29,2.54-.82,5.02-1.6,7.42-.78,2.4-1.79,4.69-3,6.87-1.22,2.19-2.65,4.22-4.27,6.14s-3.4,3.66-5.36,5.23-4.08,2.98-6.35,4.18c-2.25,1.2-4.64,2.19-7.16,2.94-2.5.76-5.13,1.28-7.84,1.53s-5.38.25-7.98-.02-5.15-.78-7.58-1.53c-2.44-.76-4.79-1.72-7.02-2.9s-4.33-2.56-6.26-4.14-3.74-3.32-5.34-5.21-3.03-3.97-4.24-6.18-2.21-4.54-2.98-6.98-1.28-5-1.53-7.65c-.21-2.14-.19-4.27.04-6.32s.67-4.08,1.3-6.01c.63-1.93,1.45-3.78,2.44-5.55s2.14-3.42,3.45-4.96c1.3-1.53,2.75-2.96,4.35-4.24,1.58-1.28,3.3-2.42,5.13-3.38s3.76-1.76,5.8-2.37,4.16-1.03,6.35-1.24c2.19-.21,4.35-.19,6.47,0,2.1.21,4.16.63,6.14,1.24s3.87,1.39,5.67,2.35c1.81.95,3.49,2.08,5.06,3.34s3.03,2.69,4.33,4.22,2.46,3.21,3.42,5c.99,1.79,1.79,3.68,2.42,5.65.61,1.97,1.03,4.06,1.24,6.2.15,1.64.15,3.26-.04,4.83s-.5,3.11-.99,4.58c-.48,1.47-1.09,2.9-1.85,4.24-.76,1.34-1.64,2.61-2.63,3.78s-2.1,2.27-3.32,3.24c-1.22.97-2.52,1.85-3.91,2.58s-2.88,1.34-4.43,1.81c-1.55.46-3.17.8-4.85.95-1.68.17-3.32.15-4.94,0s-3.17-.48-4.69-.95-2.96-1.07-4.33-1.79c-1.37-.74-2.67-1.58-3.87-2.54s-2.31-2.04-3.3-3.24c-.99-1.18-1.87-2.46-2.63-3.82s-1.37-2.79-1.85-4.31-.8-3.09-.95-4.73c-.11-1.13-.11-2.25.02-3.34s.36-2.14.69-3.17c.34-1.03.76-2,1.28-2.92.15-.25.29-.5.46-.76"/>
      <path class="st5" d="M259.16,541.84c.53.11,1.03.23,1.55.4,1.05.32,2.04.74,2.98,1.24s1.85,1.09,2.67,1.76c.82.67,1.6,1.41,2.27,2.23s1.3,1.7,1.81,2.63c.53.95.95,1.93,1.26,2.98s.55,2.14.65,3.28"/>
    </g>
  </g>
  <path class="st2" d="M68.07,259.77h336.17c2.32,0,4.2,1.88,4.2,4.2h0c0,2.32-1.88,4.2-4.2,4.2H68.07c-2.32,0-4.2-1.88-4.2-4.2h0c0-2.32,1.88-4.2,4.2-4.2Z"/>
  <path class="st2" d="M71.22,219.85h329.87c4.06,0,7.35,3.29,7.35,7.35h0c0,4.06-3.29,7.35-7.35,7.35H71.22c-4.06,0-7.35-3.29-7.35-7.35h0c0-4.06,3.29-7.35,7.35-7.35Z"/>
  <path class="st0" d="M68.07,182.03h239.52c2.32,0,4.2,1.88,4.2,4.2h0c0,2.32-1.88,4.2-4.2,4.2H68.07c-2.32,0-4.2-1.88-4.2-4.2h0c0-2.32,1.88-4.2,4.2-4.2Z"/>
  <rect class="st1" x="63.87" y="108.49" width="308.86" height="27.31" rx="6.36" ry="6.36"/>
  <path class="st0" d="M68.07,299.69h239.52c2.32,0,4.2,1.88,4.2,4.2h0c0,2.32-1.88,4.2-4.2,4.2H68.07c-2.32,0-4.2-1.88-4.2-4.2h0c0-2.32,1.88-4.2,4.2-4.2Z"/>
</svg>