<?xml version="1.0" encoding="UTF-8"?>
<svg id="Layer_1" xmlns="http://www.w3.org/2000/svg" version="1.1" viewBox="0 0 1417.32 1417.32">
  <!-- Generator: Adobe Illustrator 29.6.1, SVG Export Plug-In . SVG Version: 2.1.1 Build 9)  -->
  <defs>
    <style>
      .st0 {
        fill: #c42142;
      }
    </style>
  </defs>
  <path class="st0" d="M745.17,486.61c-19.19-34.36-55.17-61.54-107.93-81.54,63.95-38.38,95.94-90.73,95.94-157.09,0-43.96-9-80.94-26.98-110.92-17.99-29.98-42.99-54.15-74.95-72.55-31.98-18.37-70.16-31.36-114.53-38.97-44.37-7.59-92.95-11.39-145.71-11.39-39.17,0-81.53,1.8-127.11,5.39-45.57,3.6-87.54,8.99-125.91,16.19v805.85c48.76,10.4,95.73,16.98,140.9,19.79,45.15,2.79,90.53,4.19,136.1,4.19v-.02c125.5,0,220.06-21.98,283.61-65.95,63.56-43.96,95.33-109.52,95.33-196.67,0-43.16-9.58-81.93-28.77-116.31ZM186.48,135.82c0-8.56,6.94-15.5,15.49-15.5h326.13c8.55,0,15.49,6.94,15.49,15.5s-6.94,15.5-15.49,15.5H201.97c-8.55,0-15.49-6.94-15.49-15.5ZM482.81,209.32c0,2.76-2.17,5-4.85,5H196.68c-2.68,0-4.85-2.24-4.85-5s2.17-5,4.85-5h281.27c2.68,0,4.85,2.24,4.85,5ZM477.95,350.32H196.68c-2.68,0-4.85-2.24-4.85-5s2.17-5,4.85-5h281.27c2.68,0,4.85,2.24,4.85,5s-2.17,5-4.85,5ZM572.97,308.32H196.68c-2.68,0-4.85-2.24-4.85-5s2.17-5,4.85-5h376.29c2.68,0,4.85,2.24,4.85,5s-2.17,5-4.85,5ZM629.75,268.32H200.57c-3.94,0-7.52-2.64-8.39-6.48-1.26-5.57,2.87-10.52,8.13-10.52h429.19c3.94,0,7.52,2.64,8.39,6.48,1.26,5.57-2.87,10.52-8.13,10.52Z"/>
  <path class="st0" d="M1250.43,1310.19c-16.69-31.64-33.98-62.07-51.86-91.32-17.89-29.24-35.97-57.27-54.24-84.12-18.29-26.82-35.76-50.65-52.45-71.5,50.06-20.82,88.38-49.45,115.02-85.91,26.61-36.44,39.93-83.91,39.93-142.39,0-93.72-32.99-162.81-98.94-207.28-65.97-44.45-160.92-66.69-284.89-66.69v1.33s.34,0,.34,0c-34.37,0-73.33,1.62-116.88,4.8-43.56,3.19-85.71,8.8-126.46,16.79v819.41h187v-304h91.79c15.94,19.22,31.9,40.66,47.87,64.28,15.93,23.64,32.11,48.66,48.45,75.1,16.35,26.44,32.3,53.69,47.85,81.71,15.56,28.05,30.92,55.69,46.09,82.91h207.87c-14.31-30.44-29.81-61.47-46.49-93.13ZM895.49,962.03c-73.69,0-133.42-59.74-133.42-133.42s59.74-133.42,133.42-133.42,133.42,59.74,133.42,133.42-59.74,133.42-133.42,133.42Z"/>
</svg>