<?xml version="1.0" encoding="UTF-8"?>
<svg id="Layer_1" xmlns="http://www.w3.org/2000/svg" version="1.1" viewBox="0 0 1417.32 425.2">
  <!-- Generator: Adobe Illustrator 29.6.1, SVG Export Plug-In . SVG Version: 2.1.1 Build 9)  -->
  <defs>
    <style>
      .st0 {
        isolation: isolate;
      }

      .st1 {
        fill: #c41f43;
      }
    </style>
  </defs>
  <g class="st0">
    <g class="st0">
      <path class="st1" d="M110.13,298.26c-11.21,0-22.37-.33-33.48-.97-11.11-.65-22.67-2.18-34.66-4.59V105.71c9.44-1.67,19.76-2.92,30.97-3.76,11.21-.83,21.63-1.25,31.27-1.25,12.98,0,24.92.88,35.84,2.64,10.91,1.77,20.3,4.78,28.17,9.04,7.86,4.27,14.01,9.88,18.43,16.83s6.64,15.54,6.64,25.74c0,15.4-7.87,27.55-23.6,36.45,12.98,4.64,21.83,10.95,26.55,18.92,4.72,7.98,7.08,16.97,7.08,26.99,0,20.22-7.82,35.44-23.45,45.63-15.63,10.21-38.89,15.3-69.76,15.3ZM87,178.2h22.42c14.16,0,24.28-1.71,30.38-5.15,6.09-3.43,9.14-8.95,9.14-16.56s-3.15-13.26-9.44-16.42c-6.3-3.15-15.54-4.73-27.73-4.73-3.94,0-8.16.05-12.68.14-4.53.1-8.55.33-12.09.7v42.02ZM87,212.2v49.81c3.34.37,6.98.65,10.91.83,3.93.19,8.26.28,12.98.28,13.76,0,24.87-1.85,33.33-5.57,8.45-3.71,12.68-10.57,12.68-20.59,0-8.9-3.54-15.26-10.62-19.06-7.08-3.8-17.21-5.71-30.38-5.71h-28.91Z"/>
      <path class="st1" d="M299.01,298.67c-12.8-.19-23.18-1.49-31.15-3.9s-14.28-5.8-18.9-10.17c-4.63-4.36-7.78-9.66-9.45-15.88-1.67-6.22-2.51-13.23-2.51-21.03V86.39l44-6.69v159.63c0,3.72.3,7.06.89,10.03.59,2.97,1.72,5.48,3.4,7.52,1.67,2.05,4.08,3.72,7.24,5.01,3.15,1.3,7.38,2.14,12.7,2.51l-6.2,34.27Z"/>
      <path class="st1" d="M475.27,222.3c0,11.5-1.77,22.03-5.31,31.58-3.54,9.56-8.66,17.72-15.34,24.49-6.69,6.77-14.7,12.01-24.04,15.72-9.34,3.71-19.81,5.56-31.41,5.56s-21.78-1.86-31.12-5.56c-9.34-3.71-17.36-8.95-24.04-15.72-6.69-6.77-11.9-14.93-15.63-24.49-3.74-9.55-5.6-20.08-5.6-31.58s1.92-21.98,5.75-31.44c3.83-9.46,9.14-17.53,15.93-24.21,6.78-6.68,14.84-11.87,24.19-15.58,9.34-3.71,19.51-5.56,30.53-5.56s21.48,1.86,30.82,5.56c9.34,3.71,17.35,8.9,24.04,15.58,6.68,6.68,11.9,14.75,15.63,24.21,3.73,9.46,5.6,19.94,5.6,31.44ZM430.43,222.3c0-12.8-2.71-22.86-8.11-30.19-5.41-7.33-13.13-10.99-23.15-10.99s-17.8,3.67-23.3,10.99c-5.51,7.33-8.26,17.39-8.26,30.19s2.75,22.96,8.26,30.47c5.5,7.51,13.27,11.27,23.3,11.27s17.74-3.76,23.15-11.27c5.41-7.51,8.11-17.67,8.11-30.47Z"/>
      <path class="st1" d="M643,277.43c0,23.96-6.45,41.74-19.34,53.35-12.9,11.6-32.83,17.41-59.8,17.41-9.45,0-18.9-.79-28.35-2.37-9.45-1.58-18.21-3.67-26.28-6.27l7.68-34.82c6.89,2.6,14.12,4.64,21.7,6.13,7.58,1.48,16.19,2.23,25.84,2.23,12.6,0,21.51-2.6,26.72-7.8,5.21-5.2,7.83-11.88,7.83-20.06v-5.29c-4.72,2.05-9.6,3.58-14.62,4.6-5.02,1.02-10.48,1.53-16.39,1.53-21.46,0-37.9-5.99-49.32-17.97-11.42-11.98-17.13-28.74-17.13-50.28,0-10.77,1.77-20.57,5.32-29.39,3.54-8.82,8.71-16.39,15.5-22.7,6.79-6.31,15.11-11.19,24.95-14.63,9.84-3.43,20.97-5.15,33.37-5.15,5.32,0,10.78.24,16.39.7,5.61.47,11.17,1.07,16.68,1.81,5.51.74,10.78,1.63,15.8,2.65,5.02,1.02,9.5,2.09,13.44,3.2v123.14ZM546.5,217.85c0,23.19,9.93,34.78,29.79,34.78,4.52,0,8.75-.56,12.68-1.67,3.93-1.11,7.27-2.41,10.03-3.89v-66.23c-2.17-.37-4.72-.7-7.67-.97-2.95-.28-6.39-.42-10.32-.42-11.6,0-20.26,3.62-25.96,10.85-5.71,7.23-8.55,16.42-8.55,27.55Z"/>
      <path class="st1" d="M746.86,101.25c30.67,0,54.15,5.12,70.47,15.36,16.31,10.24,24.47,26.15,24.47,47.73,0,13.47-3.29,24.4-9.88,32.79-6.59,8.4-16.07,14.99-28.46,19.78,4.13,4.8,8.45,10.28,12.97,16.46,4.52,6.18,8.99,12.64,13.42,19.37,4.42,6.73,8.7,13.74,12.83,21.03,4.13,7.29,7.96,14.43,11.5,21.44h-51.42c-3.75-6.27-7.55-12.63-11.4-19.09-3.85-6.45-7.79-12.73-11.84-18.81s-8.04-11.85-11.99-17.29c-3.95-5.44-7.9-10.38-11.84-14.8h-22.71v70h-46V106.23c10.03-1.84,20.39-3.13,31.11-3.87,10.71-.74,20.3-1.11,28.75-1.11ZM749.52,138.05c-3.35,0-6.34.1-9,.28-2.65.19-5.16.37-7.52.56v52.31h12.98c17.3,0,29.69-2.04,37.16-6.12,7.47-4.08,11.21-11.03,11.21-20.87s-3.79-16.18-11.36-20.17c-7.57-3.99-18.73-5.98-33.48-5.98Z"/>
      <path class="st1" d="M1018.86,222.3c0,11.5-1.77,22.03-5.31,31.58-3.54,9.56-8.66,17.72-15.34,24.49-6.69,6.77-14.7,12.01-24.04,15.72-9.34,3.71-19.81,5.56-31.41,5.56s-21.78-1.86-31.12-5.56c-9.34-3.71-17.36-8.95-24.04-15.72-6.69-6.77-11.9-14.93-15.63-24.49-3.74-9.55-5.6-20.08-5.6-31.58s1.92-21.98,5.75-31.44c3.83-9.46,9.14-17.53,15.93-24.21s14.84-11.87,24.19-15.58c9.34-3.71,19.51-5.56,30.53-5.56s21.48,1.86,30.82,5.56c9.34,3.71,17.35,8.9,24.04,15.58,6.68,6.68,11.89,14.75,15.63,24.21,3.73,9.46,5.6,19.94,5.6,31.44ZM974.03,222.3c0-12.8-2.71-22.86-8.11-30.19-5.41-7.33-13.12-10.99-23.15-10.99s-17.8,3.67-23.3,10.99c-5.51,7.33-8.26,17.39-8.26,30.19s2.75,22.96,8.26,30.47c5.5,7.51,13.27,11.27,23.3,11.27s17.74-3.76,23.15-11.27c5.41-7.51,8.11-17.67,8.11-30.47Z"/>
      <path class="st1" d="M1115.01,298.67c-12.8-.19-23.18-1.49-31.15-3.9s-14.28-5.8-18.9-10.17c-4.63-4.36-7.78-9.66-9.45-15.88-1.67-6.22-2.51-13.23-2.51-21.03V86.39l44-6.69v159.63c0,3.72.3,7.06.89,10.03.59,2.97,1.72,5.48,3.4,7.52,1.67,2.05,4.08,3.72,7.23,5.01,3.15,1.3,7.38,2.14,12.7,2.51l-6.2,34.27Z"/>
      <path class="st1" d="M1208.01,298.67c-12.8-.19-23.18-1.49-31.15-3.9s-14.28-5.8-18.9-10.17c-4.63-4.36-7.78-9.66-9.45-15.88-1.67-6.22-2.51-13.23-2.51-21.03V86.39l44-6.69v159.63c0,3.72.3,7.06.89,10.03.59,2.97,1.72,5.48,3.4,7.52,1.67,2.05,4.08,3.72,7.23,5.01,3.15,1.3,7.38,2.14,12.7,2.51l-6.2,34.27Z"/>
      <path class="st1" d="M1373.99,149.2c-8.87,28.2-18.14,54.63-27.79,79.3-9.66,24.67-20.21,48.6-31.64,71.79-4.14,8.35-8.27,15.44-12.41,21.29-4.14,5.84-8.67,10.67-13.59,14.47-4.92,3.8-10.48,6.58-16.69,8.35-6.2,1.76-13.44,2.64-21.71,2.64-6.89,0-13.25-.6-19.06-1.81-5.81-1.21-10.58-2.55-14.32-4.03l7.67-33.11c4.53,1.48,8.56,2.5,12.1,3.06,3.54.56,7.28.83,11.22.83,7.87,0,13.91-2,18.14-5.98,4.23-3.99,7.82-9.51,10.78-16.56-10.04-18.55-20.07-39.37-30.1-62.47-10.03-23.1-19.48-49.02-28.33-77.77h46.6c1.97,7.23,4.29,15.07,6.96,23.51,2.66,8.44,5.48,16.97,8.44,25.6,2.96,8.63,5.97,17.02,9.03,25.18,3.06,8.17,5.98,15.58,8.74,22.26,2.56-6.68,5.23-14.1,8-22.26,2.76-8.16,5.48-16.56,8.14-25.18,2.66-8.63,5.23-17.16,7.7-25.6,2.46-8.44,4.69-16.28,6.66-23.51h45.45Z"/>
    </g>
  </g>
</svg>