
<svg viewBox="0 0 400 400" xmlns="http://www.w3.org/2000/svg">
  <defs>
    <linearGradient id="blogrollyGradient" x1="0%" y1="0%" x2="100%" y2="100%">
      <stop offset="0%" style="stop-color:#d63384;stop-opacity:1" />
      <stop offset="50%" style="stop-color:#c42142;stop-opacity:1" />
      <stop offset="100%" style="stop-color:#b01e3c;stop-opacity:1" />
    </linearGradient>
  </defs>
  
  <!-- Main B shape -->
  <path d="M 50 50 
           L 300 50 
           Q 350 50 350 100 
           L 350 140 
           Q 350 170 320 170 
           L 100 170 
           L 100 200 
           L 310 200 
           Q 350 200 350 240 
           L 350 300 
           Q 350 350 300 350 
           L 50 350 
           Z" 
           fill="url(#blogrollyGradient)" />
  
  <!-- Text lines -->
  <rect x="80" y="85" width="200" height="12" fill="rgba(255,255,255,0.9)" rx="6"/>
  <rect x="80" y="110" width="150" height="12" fill="rgba(255,255,255,0.7)" rx="6"/>
  <rect x="80" y="135" width="180" height="12" fill="rgba(255,255,255,0.8)" rx="6"/>
  
  <rect x="130" y="235" width="160" height="12" fill="rgba(255,255,255,0.9)" rx="6"/>
  <rect x="130" y="260" width="140" height="12" fill="rgba(255,255,255,0.7)" rx="6"/>
  <rect x="130" y="285" width="120" height="12" fill="rgba(255,255,255,0.8)" rx="6"/>
  
  <!-- Spiral pattern -->
  <g transform="translate(200, 380) scale(0.8)">
    <circle cx="0" cy="-20" r="3" fill="rgba(255,255,255,0.9)"/>
    <circle cx="8" cy="-15" r="2.5" fill="rgba(255,255,255,0.8)"/>
    <circle cx="12" cy="-5" r="2" fill="rgba(255,255,255,0.7)"/>
    <circle cx="10" cy="5" r="2.5" fill="rgba(255,255,255,0.8)"/>
    <circle cx="2" cy="12" r="3" fill="rgba(255,255,255,0.9)"/>
    <circle cx="-8" cy="15" r="2.5" fill="rgba(255,255,255,0.8)"/>
    <circle cx="-15" cy="8" r="2" fill="rgba(255,255,255,0.7)"/>
    <circle cx="-18" cy="-2" r="2.5" fill="rgba(255,255,255,0.8)"/>
    <circle cx="-15" cy="-12" r="3" fill="rgba(255,255,255,0.9)"/>
    <circle cx="-5" cy="-20" r="2.5" fill="rgba(255,255,255,0.8)"/>
    
    <!-- Spiral lines -->
    <path d="M 0,-20 Q 15,-10 20,5 Q 15,25 -5,30 Q -30,25 -35,0 Q -30,-35 0,-40 Q 45,-35 50,5 Q 45,55 -5,60" 
          fill="none" 
          stroke="rgba(255,255,255,0.6)" 
          stroke-width="1.5" 
          stroke-linecap="round"/>
  </g>
</svg>
