
<svg viewBox="0 0 100 100" xmlns="http://www.w3.org/2000/svg">
  <defs>
    <linearGradient id="logoGradient" x1="0%" y1="0%" x2="100%" y2="100%">
      <stop offset="0%" style="stop-color:#c42142;stop-opacity:1" />
      <stop offset="100%" style="stop-color:#a01835;stop-opacity:1" />
    </linearGradient>
  </defs>
  <path d="M10 10 Q10 10 20 10 L80 10 Q90 10 90 20 L90 35 Q90 45 80 45 L25 45 L25 50 L75 50 Q85 50 85 60 L85 75 Q85 85 75 85 L20 85 Q10 85 10 75 Z" fill="url(#logoGradient)"/>
  <!-- Text lines -->
  <rect x="25" y="22" width="50" height="3" fill="rgba(255,255,255,0.9)" rx="1.5"/>
  <rect x="25" y="30" width="35" height="3" fill="rgba(255,255,255,0.7)" rx="1.5"/>
  <rect x="25" y="62" width="45" height="3" fill="rgba(255,255,255,0.9)" rx="1.5"/>
  <rect x="25" y="70" width="40" height="3" fill="rgba(255,255,255,0.7)" rx="1.5"/>
  <!-- Spiral -->
  <g transform="translate(45, 92) scale(0.3)">
    <path d="M0,0 Q-10,-10 -20,0 Q-30,20 -10,30 Q20,40 30,10 Q40,-30 0,-40 Q-50,-50 -60,0 Q-70,70 0,80 Q90,90 100,0" 
          fill="none" stroke="rgba(255,255,255,0.8)" stroke-width="2"/>
  </g>
</svg>
